<mxfile host="app.diagrams.net" modified="2021-04-09T08:57:30.494Z" agent="5.0 (Macintosh; Intel Mac OS X 10_15_5) AppleWebKit/537.36 (KHTML, like Gecko) Chrome/89.0.4389.82 Safari/537.36" etag="BTkpaVU1ite8eZkjUjnz" version="14.5.8" type="github">
  <diagram id="qF-c-tcpy4ReVO_NPgXi" name="Page-1">
    <mxGraphModel dx="788" dy="519" grid="1" gridSize="10" guides="1" tooltips="1" connect="1" arrows="1" fold="1" page="1" pageScale="1" pageWidth="1169" pageHeight="827" math="0" shadow="0">
      <root>
        <mxCell id="0" />
        <mxCell id="1" parent="0" />
        <mxCell id="olQdAmLFLzQm87mFBCwn-29" value="" style="rounded=1;whiteSpace=wrap;html=1;fontSize=20;arcSize=10;" vertex="1" parent="1">
          <mxGeometry x="690" y="360" width="120" height="60" as="geometry" />
        </mxCell>
        <mxCell id="olQdAmLFLzQm87mFBCwn-28" value="" style="rounded=1;whiteSpace=wrap;html=1;fontSize=20;arcSize=10;" vertex="1" parent="1">
          <mxGeometry x="520" y="250" width="120" height="60" as="geometry" />
        </mxCell>
        <mxCell id="olQdAmLFLzQm87mFBCwn-27" value="" style="rounded=1;whiteSpace=wrap;html=1;fontSize=20;arcSize=10;" vertex="1" parent="1">
          <mxGeometry x="350" y="250" width="120" height="60" as="geometry" />
        </mxCell>
        <mxCell id="olQdAmLFLzQm87mFBCwn-26" value="" style="rounded=1;whiteSpace=wrap;html=1;fontSize=20;arcSize=10;" vertex="1" parent="1">
          <mxGeometry x="350" y="360" width="120" height="60" as="geometry" />
        </mxCell>
        <mxCell id="olQdAmLFLzQm87mFBCwn-25" value="" style="rounded=1;whiteSpace=wrap;html=1;fontSize=20;arcSize=10;" vertex="1" parent="1">
          <mxGeometry x="520" y="460" width="120" height="60" as="geometry" />
        </mxCell>
        <mxCell id="olQdAmLFLzQm87mFBCwn-1" value="" style="verticalLabelPosition=bottom;verticalAlign=top;html=1;shape=card;whiteSpace=wrap;size=0;arcSize=12;" vertex="1" parent="1">
          <mxGeometry x="520" y="360" width="120" height="60" as="geometry" />
        </mxCell>
        <mxCell id="olQdAmLFLzQm87mFBCwn-2" value="MAIN" style="text;html=1;align=center;verticalAlign=middle;resizable=0;points=[];autosize=1;strokeColor=none;fontSize=26;" vertex="1" parent="1">
          <mxGeometry x="540" y="370" width="80" height="40" as="geometry" />
        </mxCell>
        <mxCell id="olQdAmLFLzQm87mFBCwn-4" value="Environment" style="text;html=1;align=center;verticalAlign=middle;resizable=0;points=[];autosize=1;strokeColor=none;fontSize=20;" vertex="1" parent="1">
          <mxGeometry x="515" y="265" width="130" height="30" as="geometry" />
        </mxCell>
        <mxCell id="olQdAmLFLzQm87mFBCwn-5" value="" style="endArrow=blockThin;html=1;fontSize=26;strokeWidth=2;endFill=1;" edge="1" parent="1">
          <mxGeometry width="50" height="50" relative="1" as="geometry">
            <mxPoint x="600" y="350" as="sourcePoint" />
            <mxPoint x="600" y="320" as="targetPoint" />
          </mxGeometry>
        </mxCell>
        <mxCell id="olQdAmLFLzQm87mFBCwn-6" value="" style="endArrow=blockThin;html=1;fontSize=26;strokeWidth=2;endFill=1;" edge="1" parent="1">
          <mxGeometry width="50" height="50" relative="1" as="geometry">
            <mxPoint x="560" y="320" as="sourcePoint" />
            <mxPoint x="560" y="350" as="targetPoint" />
          </mxGeometry>
        </mxCell>
        <mxCell id="olQdAmLFLzQm87mFBCwn-8" value="" style="endArrow=blockThin;html=1;fontSize=26;strokeWidth=2;endFill=1;" edge="1" parent="1">
          <mxGeometry width="50" height="50" relative="1" as="geometry">
            <mxPoint x="510" y="380" as="sourcePoint" />
            <mxPoint x="480" y="380" as="targetPoint" />
          </mxGeometry>
        </mxCell>
        <mxCell id="olQdAmLFLzQm87mFBCwn-9" value="" style="endArrow=blockThin;html=1;fontSize=26;strokeWidth=2;endFill=1;" edge="1" parent="1">
          <mxGeometry width="50" height="50" relative="1" as="geometry">
            <mxPoint x="480" y="400" as="sourcePoint" />
            <mxPoint x="510" y="400" as="targetPoint" />
            <Array as="points" />
          </mxGeometry>
        </mxCell>
        <mxCell id="olQdAmLFLzQm87mFBCwn-10" value="DQN-module" style="text;html=1;align=center;verticalAlign=middle;resizable=0;points=[];autosize=1;strokeColor=none;fontSize=20;" vertex="1" parent="1">
          <mxGeometry x="345" y="375" width="130" height="30" as="geometry" />
        </mxCell>
        <mxCell id="olQdAmLFLzQm87mFBCwn-12" value="" style="endArrow=blockThin;html=1;fontSize=26;strokeWidth=2;endFill=1;" edge="1" parent="1">
          <mxGeometry width="50" height="50" relative="1" as="geometry">
            <mxPoint x="410.18" y="320" as="sourcePoint" />
            <mxPoint x="409.76" y="350" as="targetPoint" />
            <Array as="points" />
          </mxGeometry>
        </mxCell>
        <mxCell id="olQdAmLFLzQm87mFBCwn-13" value="Neural net" style="text;html=1;align=center;verticalAlign=middle;resizable=0;points=[];autosize=1;strokeColor=none;fontSize=20;" vertex="1" parent="1">
          <mxGeometry x="355" y="265" width="110" height="30" as="geometry" />
        </mxCell>
        <mxCell id="olQdAmLFLzQm87mFBCwn-15" value="Maps" style="text;html=1;align=center;verticalAlign=middle;resizable=0;points=[];autosize=1;strokeColor=none;fontSize=26;" vertex="1" parent="1">
          <mxGeometry x="710" y="370" width="80" height="40" as="geometry" />
        </mxCell>
        <mxCell id="olQdAmLFLzQm87mFBCwn-19" value="" style="endArrow=blockThin;html=1;fontSize=26;strokeWidth=2;endFill=1;jumpSize=6;" edge="1" parent="1">
          <mxGeometry width="50" height="50" relative="1" as="geometry">
            <mxPoint x="650" y="280" as="sourcePoint" />
            <mxPoint x="750" y="350" as="targetPoint" />
            <Array as="points">
              <mxPoint x="750" y="280" />
            </Array>
          </mxGeometry>
        </mxCell>
        <mxCell id="olQdAmLFLzQm87mFBCwn-21" value="Graphics" style="text;html=1;align=center;verticalAlign=middle;resizable=0;points=[];autosize=1;strokeColor=none;fontSize=26;" vertex="1" parent="1">
          <mxGeometry x="520" y="470" width="120" height="40" as="geometry" />
        </mxCell>
        <mxCell id="olQdAmLFLzQm87mFBCwn-22" value="" style="endArrow=blockThin;html=1;fontSize=26;strokeWidth=2;endFill=1;" edge="1" parent="1">
          <mxGeometry width="50" height="50" relative="1" as="geometry">
            <mxPoint x="579.8" y="430" as="sourcePoint" />
            <mxPoint x="580" y="450" as="targetPoint" />
          </mxGeometry>
        </mxCell>
        <mxCell id="olQdAmLFLzQm87mFBCwn-23" value="" style="endArrow=blockThin;html=1;fontSize=26;strokeWidth=2;endFill=1;" edge="1" parent="1">
          <mxGeometry width="50" height="50" relative="1" as="geometry">
            <mxPoint x="680" y="380" as="sourcePoint" />
            <mxPoint x="650" y="380" as="targetPoint" />
          </mxGeometry>
        </mxCell>
        <mxCell id="olQdAmLFLzQm87mFBCwn-24" value="" style="endArrow=blockThin;html=1;fontSize=26;strokeWidth=2;endFill=1;" edge="1" parent="1">
          <mxGeometry width="50" height="50" relative="1" as="geometry">
            <mxPoint x="650" y="400" as="sourcePoint" />
            <mxPoint x="680" y="400" as="targetPoint" />
          </mxGeometry>
        </mxCell>
      </root>
    </mxGraphModel>
  </diagram>
</mxfile>
